<svg xmlns="http://www.w3.org/2000/svg" width="1100" height="700" viewBox="0 0 1100 700" fill="none">
  <g stroke="#2F6650" stroke-width="1" opacity="0.5" fill="none">
    <path d="M-50 120 C 180 60, 360 200, 560 150 S 920 40, 1160 140"></path>
    <path d="M-50 170 C 180 110, 360 250, 560 200 S 920 90, 1160 190"></path>
    <path d="M-50 225 C 190 165, 370 305, 565 255 S 925 150, 1160 248"></path>
    <path d="M-50 285 C 200 230, 380 360, 575 312 S 930 215, 1160 310"></path>
    <path d="M-50 350 C 210 300, 400 420, 590 378 S 940 290, 1160 378"></path>
    <path d="M-50 420 C 220 376, 410 486, 600 448 S 950 368, 1160 452"></path>
    <path d="M-50 495 C 230 456, 430 556, 615 522 S 965 452, 1160 530"></path>
    <path d="M-50 575 C 245 540, 450 632, 635 600 S 985 540, 1160 612"></path>
  </g>
  <g stroke="#B08D52" stroke-width="1" opacity="0.32" fill="none">
    <path d="M-50 255 C 195 198, 375 338, 570 285 S 928 182, 1160 280"></path>
    <path d="M-50 460 C 225 418, 420 522, 608 486 S 958 410, 1160 492"></path>
  </g>
</svg>