<svg xmlns="http://www.w3.org/2000/svg" width="1600" height="1000" viewBox="0 0 1600 1000" fill="none" preserveAspectRatio="xMidYMid slice">
  <g fill="none" stroke-linecap="round">
    <g stroke="#3C7A60" stroke-width="1.1" opacity="0.45">
      <path d="M-100 180 C 250 90, 520 250, 820 170 S 1340 30, 1720 160"></path>
      <path d="M-100 250 C 260 165, 540 320, 835 242 S 1350 110, 1720 232"></path>
      <path d="M-100 325 C 280 245, 560 392, 855 318 S 1365 196, 1720 312"></path>
      <path d="M-100 408 C 300 332, 590 470, 880 402 S 1380 290, 1720 400"></path>
      <path d="M-100 500 C 320 428, 615 558, 905 496 S 1400 392, 1720 498"></path>
      <path d="M-100 600 C 345 532, 645 652, 935 598 S 1420 502, 1720 604"></path>
      <path d="M-100 708 C 365 646, 675 752, 965 706 S 1440 620, 1720 716"></path>
      <path d="M-100 822 C 390 766, 705 858, 995 820 S 1460 744, 1720 834"></path>
    </g>
    <g stroke="#B08D52" stroke-width="1.1" opacity="0.4">
      <path d="M-100 287 C 270 205, 550 356, 845 280 S 1358 152, 1720 272"></path>
      <path d="M-100 548 C 332 472, 628 604, 920 546 S 1410 446, 1720 550"></path>
      <path d="M-100 762 C 378 702, 690 802, 980 760 S 1452 680, 1720 772"></path>
    </g>
  </g>
</svg>